<mxfile host="app.diagrams.net" modified="2022-01-04T09:42:27.517Z" agent="5.0 (X11; Linux x86_64) AppleWebKit/537.36 (KHTML, like Gecko) Chrome/96.0.4664.45 Safari/537.36" etag="72O6_9_bJvieHfOmuKtz" version="16.1.4" type="github">
  <diagram id="GUxBitPO3wvBzjCoGFX5" name="Page-1">
    <mxGraphModel dx="1653" dy="973" grid="1" gridSize="10" guides="1" tooltips="1" connect="1" arrows="1" fold="1" page="1" pageScale="1" pageWidth="827" pageHeight="1169" math="0" shadow="0">
      <root>
        <mxCell id="0" />
        <mxCell id="1" parent="0" />
        <mxCell id="okkgPHs_yZ74coI1MuK--1" value="开始" style="rounded=1;whiteSpace=wrap;html=1;" vertex="1" parent="1">
          <mxGeometry x="50" y="20" width="120" height="60" as="geometry" />
        </mxCell>
        <mxCell id="okkgPHs_yZ74coI1MuK--3" value="结束" style="rounded=1;whiteSpace=wrap;html=1;" vertex="1" parent="1">
          <mxGeometry x="200" y="20" width="120" height="60" as="geometry" />
        </mxCell>
        <mxCell id="okkgPHs_yZ74coI1MuK--4" value="输入&lt;br&gt;输出" style="shape=parallelogram;perimeter=parallelogramPerimeter;whiteSpace=wrap;html=1;fixedSize=1;" vertex="1" parent="1">
          <mxGeometry x="354" y="20" width="120" height="60" as="geometry" />
        </mxCell>
        <mxCell id="okkgPHs_yZ74coI1MuK--7" style="edgeStyle=orthogonalEdgeStyle;rounded=0;orthogonalLoop=1;jettySize=auto;html=1;" edge="1" parent="1" source="okkgPHs_yZ74coI1MuK--5" target="okkgPHs_yZ74coI1MuK--8">
          <mxGeometry relative="1" as="geometry">
            <mxPoint x="110" y="300" as="targetPoint" />
          </mxGeometry>
        </mxCell>
        <mxCell id="okkgPHs_yZ74coI1MuK--5" value="初始化循环控制变量" style="rounded=0;whiteSpace=wrap;html=1;" vertex="1" parent="1">
          <mxGeometry x="50" y="170" width="120" height="60" as="geometry" />
        </mxCell>
        <mxCell id="okkgPHs_yZ74coI1MuK--12" style="edgeStyle=orthogonalEdgeStyle;rounded=0;orthogonalLoop=1;jettySize=auto;html=1;entryX=0;entryY=0.5;entryDx=0;entryDy=0;" edge="1" parent="1" source="okkgPHs_yZ74coI1MuK--8" target="okkgPHs_yZ74coI1MuK--11">
          <mxGeometry relative="1" as="geometry" />
        </mxCell>
        <mxCell id="okkgPHs_yZ74coI1MuK--16" style="edgeStyle=orthogonalEdgeStyle;rounded=0;orthogonalLoop=1;jettySize=auto;html=1;exitX=0.5;exitY=1;exitDx=0;exitDy=0;" edge="1" parent="1" source="okkgPHs_yZ74coI1MuK--8">
          <mxGeometry relative="1" as="geometry">
            <mxPoint x="110" y="390" as="targetPoint" />
          </mxGeometry>
        </mxCell>
        <mxCell id="okkgPHs_yZ74coI1MuK--8" value="循环控制条件" style="rhombus;whiteSpace=wrap;html=1;" vertex="1" parent="1">
          <mxGeometry x="50" y="270" width="120" height="80" as="geometry" />
        </mxCell>
        <mxCell id="okkgPHs_yZ74coI1MuK--15" style="edgeStyle=orthogonalEdgeStyle;rounded=0;orthogonalLoop=1;jettySize=auto;html=1;entryX=0.5;entryY=0;entryDx=0;entryDy=0;" edge="1" parent="1" source="okkgPHs_yZ74coI1MuK--11" target="okkgPHs_yZ74coI1MuK--8">
          <mxGeometry relative="1" as="geometry">
            <Array as="points">
              <mxPoint x="280" y="250" />
              <mxPoint x="110" y="250" />
            </Array>
          </mxGeometry>
        </mxCell>
        <mxCell id="okkgPHs_yZ74coI1MuK--11" value="" style="rounded=0;whiteSpace=wrap;html=1;" vertex="1" parent="1">
          <mxGeometry x="220" y="280" width="120" height="60" as="geometry" />
        </mxCell>
        <mxCell id="okkgPHs_yZ74coI1MuK--19" style="edgeStyle=orthogonalEdgeStyle;rounded=0;orthogonalLoop=1;jettySize=auto;html=1;" edge="1" parent="1" source="okkgPHs_yZ74coI1MuK--17" target="okkgPHs_yZ74coI1MuK--18">
          <mxGeometry relative="1" as="geometry" />
        </mxCell>
        <mxCell id="okkgPHs_yZ74coI1MuK--17" value="函数名&lt;br&gt;开始" style="rounded=1;whiteSpace=wrap;html=1;" vertex="1" parent="1">
          <mxGeometry x="50" y="450" width="120" height="60" as="geometry" />
        </mxCell>
        <mxCell id="okkgPHs_yZ74coI1MuK--21" style="edgeStyle=orthogonalEdgeStyle;rounded=0;orthogonalLoop=1;jettySize=auto;html=1;" edge="1" parent="1" source="okkgPHs_yZ74coI1MuK--18" target="okkgPHs_yZ74coI1MuK--20">
          <mxGeometry relative="1" as="geometry" />
        </mxCell>
        <mxCell id="okkgPHs_yZ74coI1MuK--18" value="接受参数a，b，c" style="rounded=0;whiteSpace=wrap;html=1;" vertex="1" parent="1">
          <mxGeometry x="50" y="560" width="120" height="60" as="geometry" />
        </mxCell>
        <mxCell id="okkgPHs_yZ74coI1MuK--24" style="edgeStyle=orthogonalEdgeStyle;rounded=0;orthogonalLoop=1;jettySize=auto;html=1;exitX=0.5;exitY=1;exitDx=0;exitDy=0;entryX=0.5;entryY=0;entryDx=0;entryDy=0;" edge="1" parent="1" source="okkgPHs_yZ74coI1MuK--20" target="okkgPHs_yZ74coI1MuK--23">
          <mxGeometry relative="1" as="geometry" />
        </mxCell>
        <mxCell id="okkgPHs_yZ74coI1MuK--20" value="操作" style="rounded=0;whiteSpace=wrap;html=1;" vertex="1" parent="1">
          <mxGeometry x="50" y="650" width="120" height="60" as="geometry" />
        </mxCell>
        <mxCell id="okkgPHs_yZ74coI1MuK--22" value="循环控制条件" style="rhombus;whiteSpace=wrap;html=1;" vertex="1" parent="1">
          <mxGeometry x="520" y="10" width="120" height="80" as="geometry" />
        </mxCell>
        <mxCell id="okkgPHs_yZ74coI1MuK--30" style="edgeStyle=orthogonalEdgeStyle;rounded=0;orthogonalLoop=1;jettySize=auto;html=1;exitX=1;exitY=0.5;exitDx=0;exitDy=0;entryX=0.5;entryY=1;entryDx=0;entryDy=0;" edge="1" parent="1" source="okkgPHs_yZ74coI1MuK--23" target="okkgPHs_yZ74coI1MuK--31">
          <mxGeometry relative="1" as="geometry">
            <mxPoint x="240" y="790" as="targetPoint" />
          </mxGeometry>
        </mxCell>
        <mxCell id="okkgPHs_yZ74coI1MuK--33" style="edgeStyle=orthogonalEdgeStyle;rounded=0;orthogonalLoop=1;jettySize=auto;html=1;exitX=0.5;exitY=1;exitDx=0;exitDy=0;" edge="1" parent="1" source="okkgPHs_yZ74coI1MuK--23" target="okkgPHs_yZ74coI1MuK--34">
          <mxGeometry relative="1" as="geometry">
            <mxPoint x="110" y="900" as="targetPoint" />
          </mxGeometry>
        </mxCell>
        <mxCell id="okkgPHs_yZ74coI1MuK--23" value="循环控制条件" style="rhombus;whiteSpace=wrap;html=1;" vertex="1" parent="1">
          <mxGeometry x="50" y="750" width="120" height="80" as="geometry" />
        </mxCell>
        <mxCell id="okkgPHs_yZ74coI1MuK--28" value="&amp;nbsp;" style="text;html=1;strokeColor=none;fillColor=none;align=center;verticalAlign=middle;whiteSpace=wrap;rounded=0;" vertex="1" parent="1">
          <mxGeometry x="50" y="520" width="60" height="30" as="geometry" />
        </mxCell>
        <mxCell id="okkgPHs_yZ74coI1MuK--32" style="edgeStyle=orthogonalEdgeStyle;rounded=0;orthogonalLoop=1;jettySize=auto;html=1;entryX=1;entryY=0.5;entryDx=0;entryDy=0;" edge="1" parent="1" source="okkgPHs_yZ74coI1MuK--31" target="okkgPHs_yZ74coI1MuK--28">
          <mxGeometry relative="1" as="geometry">
            <Array as="points">
              <mxPoint x="270" y="535" />
            </Array>
          </mxGeometry>
        </mxCell>
        <mxCell id="okkgPHs_yZ74coI1MuK--31" value="传递参数" style="rounded=0;whiteSpace=wrap;html=1;" vertex="1" parent="1">
          <mxGeometry x="210" y="560" width="120" height="60" as="geometry" />
        </mxCell>
        <mxCell id="okkgPHs_yZ74coI1MuK--34" value="结束" style="rounded=1;whiteSpace=wrap;html=1;" vertex="1" parent="1">
          <mxGeometry x="50" y="860" width="120" height="60" as="geometry" />
        </mxCell>
      </root>
    </mxGraphModel>
  </diagram>
</mxfile>
